<!--?xml version="1.0" encoding="utf-8"?-->
<!-- Generator: Adobe Illustrator 19.1.1, SVG Export Plug-In . SVG Version: 6.00 Build 0)  -->
<svg version="1.1" id="_x31_0" xmlns="http://www.w3.org/2000/svg" xmlns:xlink="http://www.w3.org/1999/xlink" x="0px" y="0px" viewBox="0 0 512 512" style="width: 128px; height: 128px; opacity: 1;" xml:space="preserve">
<style type="text/css">
	.st0{fill:#374149;}
</style>
<g>
	<path class="st0" d="M398.28,366.628c-0.019,0.023-0.027,0.05-0.046,0.074C401.48,362.287,421.602,334.801,398.28,366.628z" style="fill: rgb(75, 75, 75);"></path>
	<path class="st0" d="M398.28,366.628c43.742-59.697,75.749-134.43,58.802-209.491c-10.266-45.462-37.351-88.95-74.346-117.468
		c-12.63-9.735-26.428-17.45-40.898-23.514c-0.27-0.114-0.527-0.242-0.797-0.355c-4.387-1.817-8.852-3.418-13.361-4.907
		c-0.77-0.258-1.519-0.546-2.297-0.793c-4.481-1.426-9.024-2.645-13.599-3.758c-0.793-0.191-1.57-0.418-2.371-0.602
		c-4.958-1.144-9.958-2.082-14.998-2.875c-0.394-0.058-0.777-0.137-1.172-0.195c-12.802-1.938-25.787-2.883-38.784-2.629
		c-15.306,0.301-30.491,2.762-45.094,7.008c-0.73,0.211-1.43,0.489-2.156,0.707c-3.891,1.184-7.758,2.426-11.552,3.864
		c-2.137,0.808-4.188,1.758-6.282,2.641c-2.395,1.011-4.817,1.965-7.157,3.078c-2.149,1.015-4.204,2.164-6.298,3.262
		c-2.29,1.196-4.598,2.344-6.825,3.634c-1.493,0.863-2.902,1.82-4.36,2.726c-2.797,1.727-5.59,3.454-8.27,5.325
		c-0.531,0.371-1.023,0.782-1.55,1.16C120.657,57.913,96.671,93.76,94.663,134.279c-1.004,20.302-2.863,37.48-3.758,58.712
		c-1.012,24.038-8.927,40.445-12.243,45.715c-6.501,10.333-15.49,15.736-18.646,18.782c-14.767,14.279-9.181,40.199-5.856,58.06
		c4.676,25.123,12.036,51.223,23.678,74.058c16.244,31.866,46.227,55.278,83.406,49.325c13.935-2.231,33.694-16.342,46.966-9.794
		c0.008,0.004,0.012,0.004,0.012,0.004c0.996,0.497,1.949,1.114,2.863,1.848c0.062,0.047,0.117,0.102,0.18,0.149
		c1.836,1.523,3.504,3.558,4.957,6.25c6.017,11.165,7.958,24.978,10.701,37.206c2.778,12.361,5.34,24.803,6.703,37.406
		c53.337-17.908,106.678-35.819,160.014-53.731c7.45-2.5,7.153-5.239,14.438-7.532c0.051-0.016,0.082-0.031,0.133-0.043v-0.004
		c0.055-0.019,0.094-0.035,0.149-0.054c-8.845-22.74-26.53-61.282-10.126-83.934C397.694,367.437,397.604,367.554,398.28,366.628z
		 M128.315,278.409c26.635,8.399,54.25,14.072,81.706,18.533c33.077-19.842,67.623-37.73,99.348-59.755
		c1.02-0.711,2.306,0.262,1.977,1.458c-1.871,6.836-3.199,13.075-4.031,18.759c-0.054,0.375-0.266,0.695-0.586,0.902
		c-30.51,19.889-62.845,37.324-94.305,55.677c-3.36,20.158-2.746,40.722,1.434,60.693c0.43,2.122,0.703,4.262,1.215,6.372
		c0.011-0.008,0.027-0.016,0.039-0.02c0.011,0.055,0.019,0.11,0.031,0.161c25.302-12.142,49.726-26.358,73.432-41.348
		c8.563-5.414,17.13-10.821,25.654-16.286c3.727-2.391,10.197-8.247,14.357-8.098c4.039,0.141,8.454,3.414,12.911,5.29
		c1.661,0.699,1.848,3,0.348,3.997c-9.594,6.379-20.99,13.614-34.452,22.126c-28.542,17.9-57.349,35.198-87.692,49.922
		c-8.302,4.032-16.83,7.52-25.198,11.392c-10.153,4.695-19.49,10.985-30.479,13.826c-15.45,3.992-32.237,1.414-45.5-7.513
		c-22.717-15.29-32.753-44.793-39.992-67.662c-4.726-14.934-8.242-30.186-10.454-45.695c-2.309-16.201-4.298-37.675,18.213-35.69
		c9.481,0.836,18.442,4.954,27.314,8.184c3.313,1.203,6.712,2.164,10.063,3.27C125.217,277.409,126.764,277.921,128.315,278.409z" style="fill: rgb(75, 75, 75);"></path>
</g>
</svg>
